<?xml version="1.0" encoding="UTF-8" standalone="no" ?>
<!DOCTYPE svg PUBLIC "-//W3C//DTD SVG 1.1//EN" "http://www.w3.org/Graphics/SVG/1.1/DTD/svg11.dtd">
<svg xmlns="http://www.w3.org/2000/svg" xmlns:xlink="http://www.w3.org/1999/xlink" version="1.1" width="1280" height="1024" viewBox="0 0 1280 1024" xml:space="preserve">
<desc>Created with Fabric.js 4.4.0</desc>
<defs>
</defs>
<g transform="matrix(1 0 0 1 640 512)" id="background-logo"  >
<rect style="stroke: none; stroke-width: 0; stroke-dasharray: none; stroke-linecap: butt; stroke-dashoffset: 0; stroke-linejoin: miter; stroke-miterlimit: 4; fill: rgb(255,255,255); fill-opacity: 0; fill-rule: nonzero; opacity: 1;"  paint-order="stroke"  x="-640" y="-512" rx="0" ry="0" width="1280" height="1024" />
</g>
<g transform="matrix(1.9211538461538462 0 0 1.9211538461538462 640.0000000000001 365.0577749908598)" id="logo-logo"  >
<g style=""  paint-order="stroke"   >
		<g transform="matrix(0.27595348566462646 0 0 -0.27595348566462646 8.260667593370556 -42.57962283805182)"  >
<path style="stroke: none; stroke-width: 1; stroke-dasharray: none; stroke-linecap: butt; stroke-dashoffset: 0; stroke-linejoin: miter; stroke-miterlimit: 4; fill: rgb(45,77,155); fill-rule: nonzero; opacity: 1;"  paint-order="stroke"  transform=" translate(-1824.935, -1614.1299999999999)" d="M 2082.97 1366.01 L 2082.97 1626.09 L 1794.9999999999998 1792.35 L 1567.4499999999998 1660.9699999999998 L 1446.8999999999999 1729.9399999999998 L 1795 1930.9099999999999 L 2202.9700000000003 1695.37 L 2202.9700000000003 1297.35 L 2082.9700000000003 1366.01" stroke-linecap="round" />
</g>
		<g transform="matrix(0.27595348566462646 0 0 -0.27595348566462646 14.215743814013138 -45.7834428066181)"  >
<path style="stroke: none; stroke-width: 1; stroke-dasharray: none; stroke-linecap: butt; stroke-dashoffset: 0; stroke-linejoin: miter; stroke-miterlimit: 4; fill: rgb(45,77,155); fill-rule: nonzero; opacity: 1;"  paint-order="stroke"  transform=" translate(-1846.5149999999999, -1625.7399999999998)" d="M 1812.35 1591.57 L 1880.6799999999998 1591.57 L 1880.6799999999998 1659.9099999999999 L 1812.35 1659.9099999999999 L 1812.35 1591.57" stroke-linecap="round" />
</g>
		<g transform="matrix(0.27595348566462646 0 0 -0.27595348566462646 -14.215743814013251 -45.7834428066181)"  >
<path style="stroke: none; stroke-width: 1; stroke-dasharray: none; stroke-linecap: butt; stroke-dashoffset: 0; stroke-linejoin: miter; stroke-miterlimit: 4; fill: rgb(45,77,155); fill-rule: nonzero; opacity: 1;"  paint-order="stroke"  transform=" translate(-1743.485, -1625.7399999999998)" d="M 1709.32 1591.57 L 1777.6499999999999 1591.57 L 1777.6499999999999 1659.9099999999999 L 1709.32 1659.9099999999999 L 1709.32 1591.57" stroke-linecap="round" />
</g>
		<g transform="matrix(0.27595348566462646 0 0 -0.27595348566462646 14.215743814013138 -19.159450509694977)"  >
<path style="stroke: none; stroke-width: 1; stroke-dasharray: none; stroke-linecap: butt; stroke-dashoffset: 0; stroke-linejoin: miter; stroke-miterlimit: 4; fill: rgb(45,77,155); fill-rule: nonzero; opacity: 1;"  paint-order="stroke"  transform=" translate(-1846.5149999999999, -1529.2599999999998)" d="M 1812.35 1495.09 L 1880.6799999999998 1495.09 L 1880.6799999999998 1563.4299999999998 L 1812.35 1563.4299999999998 L 1812.35 1495.09" stroke-linecap="round" />
</g>
		<g transform="matrix(0.27595348566462646 0 0 -0.27595348566462646 -14.215743814013251 -19.159450509694977)"  >
<path style="stroke: none; stroke-width: 1; stroke-dasharray: none; stroke-linecap: butt; stroke-dashoffset: 0; stroke-linejoin: miter; stroke-miterlimit: 4; fill: rgb(45,77,155); fill-rule: nonzero; opacity: 1;"  paint-order="stroke"  transform=" translate(-1743.485, -1529.2599999999998)" d="M 1709.32 1495.09 L 1777.6499999999999 1495.09 L 1777.6499999999999 1563.4299999999998 L 1709.32 1563.4299999999998 L 1709.32 1495.09" stroke-linecap="round" />
</g>
		<g transform="matrix(0.27595348566462646 0 0 -0.27595348566462646 -7.886750620295061 42.14913540041502)"  >
<path style="stroke: none; stroke-width: 1; stroke-dasharray: none; stroke-linecap: butt; stroke-dashoffset: 0; stroke-linejoin: miter; stroke-miterlimit: 4; fill: rgb(236,29,39); fill-rule: nonzero; opacity: 1;"  paint-order="stroke"  transform=" translate(-1766.42, -1307.0900000000001)" d="M 1548.51 1200.65 L 1613.93 1259.51 L 1578.17 1339.92 L 1654.3600000000001 1295.89 L 1719.7800000000002 1354.75 L 1701.4500000000003 1268.68 L 1777.6500000000003 1224.65 L 1690.1300000000003 1215.49 L 1671.8000000000004 1129.41 L 1636.0400000000004 1209.8200000000002 z M 1387.03 1625.43 L 1387.03 1224.29 L 1795 988.75 L 2145.81 1191.29 L 1507.03 1556.77 L 1387.03 1625.43" stroke-linecap="round" />
</g>
</g>
</g>
<g transform="matrix(1.9211538461538462 0 0 1.9211538461538462 639.7579346153846 742.9790419569097)" id="text-logo"  >
<g style=""  paint-order="stroke"   >
		<g transform="matrix(1 0 0 1 5.684342e-14 0)" id="text-logo-path-0"  >
<path style="stroke: none; stroke-width: 0; stroke-dasharray: none; stroke-linecap: butt; stroke-dashoffset: 0; stroke-linejoin: miter; stroke-miterlimit: 4; fill: rgb(45,77,155); fill-rule: nonzero; opacity: 1;"  paint-order="stroke"  transform=" translate(-309.83, 21.955)" d="M 14.11 0.63 L 14.11 0.63 Q 10.65 0.63 7.84 -1.1 Q 5.04 -2.83 3.4 -5.73 Q 1.76 -8.63 1.76 -12.22 L 1.76 -12.22 L 1.83 -31.88 Q 1.83 -35.34 3.43 -38.21 Q 5.04 -41.08 7.84 -42.81 Q 10.65 -44.54 14.11 -44.54 L 14.11 -44.54 Q 17.58 -44.54 20.35 -42.84 Q 23.12 -41.14 24.76 -38.27 Q 26.4 -35.41 26.4 -31.88 L 26.4 -31.88 L 26.4 -28.98 Q 26.4 -28.73 26.14 -28.73 L 26.14 -28.73 L 19.09 -28.73 Q 18.84 -28.73 18.84 -28.98 L 18.84 -28.98 L 18.84 -31.88 Q 18.84 -33.96 17.48 -35.47 Q 16.13 -36.98 14.11 -36.98 L 14.11 -36.98 Q 11.84 -36.98 10.65 -35.44 Q 9.45 -33.89 9.45 -31.88 L 9.45 -31.88 L 9.45 -12.22 Q 9.45 -9.89 10.8 -8.44 Q 12.16 -6.99 14.11 -6.99 L 14.11 -6.99 Q 16.13 -6.99 17.48 -8.6 Q 18.84 -10.21 18.84 -12.22 L 18.84 -12.22 L 18.84 -15.12 Q 18.84 -15.37 19.09 -15.37 L 19.09 -15.37 L 26.21 -15.37 Q 26.46 -15.37 26.46 -15.12 L 26.46 -15.12 L 26.46 -12.22 Q 26.46 -8.63 24.79 -5.73 Q 23.12 -2.83 20.35 -1.1 Q 17.58 0.63 14.11 0.63 Z M 42.71 0.63 L 42.71 0.63 Q 39.31 0.63 36.51 -1.1 Q 33.7 -2.83 32 -5.7 Q 30.3 -8.57 30.3 -12.03 L 30.3 -12.03 L 30.37 -32 Q 30.37 -35.47 32.04 -38.3 Q 33.7 -41.14 36.54 -42.84 Q 39.38 -44.54 42.71 -44.54 L 42.71 -44.54 Q 46.12 -44.54 48.89 -42.84 Q 51.66 -41.14 53.33 -38.3 Q 55 -35.47 55 -32 L 55 -32 L 55.06 -12.03 Q 55.06 -8.57 53.39 -5.7 Q 51.72 -2.83 48.92 -1.1 Q 46.12 0.63 42.71 0.63 Z M 42.71 -6.99 L 42.71 -6.99 Q 44.6 -6.99 46.02 -8.54 Q 47.44 -10.08 47.44 -12.03 L 47.44 -12.03 L 47.38 -32 Q 47.38 -34.08 46.05 -35.53 Q 44.73 -36.98 42.71 -36.98 L 42.71 -36.98 Q 40.76 -36.98 39.38 -35.56 Q 37.99 -34.15 37.99 -32 L 37.99 -32 L 37.99 -12.03 Q 37.99 -9.95 39.38 -8.47 Q 40.76 -6.99 42.71 -6.99 Z M 80.45 0 L 60.1 0 Q 59.85 0 59.85 -0.32 L 59.85 -0.32 L 59.91 -43.53 Q 59.91 -43.85 60.23 -43.85 L 60.23 -43.85 L 67.22 -43.85 Q 67.54 -43.85 67.54 -43.53 L 67.54 -43.53 L 67.47 -7.75 L 80.45 -7.75 Q 80.77 -7.75 80.77 -7.43 L 80.77 -7.43 L 80.77 -0.32 Q 80.77 0 80.45 0 L 80.45 0 Z M 95.63 0.63 L 95.63 0.63 Q 92.23 0.63 89.43 -1.1 Q 86.62 -2.83 84.92 -5.7 Q 83.22 -8.57 83.22 -12.03 L 83.22 -12.03 L 83.29 -32 Q 83.29 -35.47 84.96 -38.3 Q 86.62 -41.14 89.46 -42.84 Q 92.29 -44.54 95.63 -44.54 L 95.63 -44.54 Q 99.04 -44.54 101.81 -42.84 Q 104.58 -41.14 106.25 -38.3 Q 107.92 -35.47 107.92 -32 L 107.92 -32 L 107.98 -12.03 Q 107.98 -8.57 106.31 -5.7 Q 104.64 -2.83 101.84 -1.1 Q 99.04 0.63 95.63 0.63 Z M 95.63 -6.99 L 95.63 -6.99 Q 97.52 -6.99 98.94 -8.54 Q 100.36 -10.08 100.36 -12.03 L 100.36 -12.03 L 100.3 -32 Q 100.3 -34.08 98.97 -35.53 Q 97.65 -36.98 95.63 -36.98 L 95.63 -36.98 Q 93.68 -36.98 92.29 -35.56 Q 90.91 -34.15 90.91 -32 L 90.91 -32 L 90.91 -12.03 Q 90.91 -9.95 92.29 -8.47 Q 93.68 -6.99 95.63 -6.99 Z M 120.14 0 L 113.02 0 Q 112.77 0 112.77 -0.32 L 112.77 -0.32 L 112.9 -43.6 Q 112.9 -43.85 113.15 -43.85 L 113.15 -43.85 L 125.87 -43.85 Q 129.28 -43.85 132.14 -42.18 Q 135.01 -40.51 136.71 -37.71 Q 138.41 -34.9 138.41 -31.37 L 138.41 -31.37 Q 138.41 -29.04 137.72 -27.18 Q 137.02 -25.33 136.08 -24.03 Q 135.13 -22.74 134.38 -22.11 L 134.38 -22.11 Q 137.78 -18.33 137.78 -13.23 L 137.78 -13.23 L 137.84 -0.32 Q 137.84 0 137.53 0 L 137.53 0 L 130.41 0 Q 130.16 0 130.16 -0.19 L 130.16 -0.19 L 130.16 -13.23 Q 130.16 -15.5 128.55 -17.17 Q 126.94 -18.84 124.61 -18.84 L 124.61 -18.84 L 120.46 -18.84 L 120.39 -0.32 Q 120.39 0 120.14 0 L 120.14 0 Z M 120.46 -36.29 L 120.46 -26.4 L 125.87 -26.4 Q 127.83 -26.4 129.34 -27.85 Q 130.85 -29.3 130.85 -31.37 L 130.85 -31.37 Q 130.85 -33.39 129.37 -34.84 Q 127.89 -36.29 125.87 -36.29 L 125.87 -36.29 L 120.46 -36.29 Z M 154.41 0.63 L 154.41 0.63 Q 150.95 0.63 148.14 -1.1 Q 145.34 -2.83 143.7 -5.73 Q 142.06 -8.63 142.06 -12.22 L 142.06 -12.22 L 142.13 -31.88 Q 142.13 -35.34 143.73 -38.21 Q 145.34 -41.08 148.14 -42.81 Q 150.95 -44.54 154.41 -44.54 L 154.41 -44.54 Q 157.88 -44.54 160.65 -42.84 Q 163.42 -41.14 165.06 -38.27 Q 166.7 -35.41 166.7 -31.88 L 166.7 -31.88 L 166.7 -28.98 Q 166.7 -28.73 166.45 -28.73 L 166.45 -28.73 L 159.39 -28.73 Q 159.14 -28.73 159.14 -28.98 L 159.14 -28.98 L 159.14 -31.88 Q 159.14 -33.96 157.78 -35.47 Q 156.43 -36.98 154.41 -36.98 L 154.41 -36.98 Q 152.14 -36.98 150.95 -35.44 Q 149.75 -33.89 149.75 -31.88 L 149.75 -31.88 L 149.75 -12.22 Q 149.75 -9.89 151.11 -8.44 Q 152.46 -6.99 154.41 -6.99 L 154.41 -6.99 Q 156.43 -6.99 157.78 -8.6 Q 159.14 -10.21 159.14 -12.22 L 159.14 -12.22 L 159.14 -15.12 Q 159.14 -15.37 159.39 -15.37 L 159.39 -15.37 L 166.51 -15.37 Q 166.76 -15.37 166.76 -15.12 L 166.76 -15.12 L 166.76 -12.22 Q 166.76 -8.63 165.09 -5.73 Q 163.42 -2.83 160.65 -1.1 Q 157.88 0.63 154.41 0.63 Z M 178.73 0 L 171.61 0 Q 171.36 0 171.36 -0.32 L 171.36 -0.32 L 171.49 -43.6 Q 171.49 -43.85 171.74 -43.85 L 171.74 -43.85 L 184.46 -43.85 Q 187.87 -43.85 190.73 -42.18 Q 193.6 -40.51 195.3 -37.71 Q 197 -34.9 197 -31.37 L 197 -31.37 Q 197 -29.04 196.31 -27.18 Q 195.61 -25.33 194.67 -24.03 Q 193.72 -22.74 192.97 -22.11 L 192.97 -22.11 Q 196.37 -18.33 196.37 -13.23 L 196.37 -13.23 L 196.43 -0.32 Q 196.43 0 196.12 0 L 196.12 0 L 189 0 Q 188.75 0 188.75 -0.19 L 188.75 -0.19 L 188.75 -13.23 Q 188.75 -15.5 187.14 -17.17 Q 185.53 -18.84 183.2 -18.84 L 183.2 -18.84 L 179.05 -18.84 L 178.98 -0.32 Q 178.98 0 178.73 0 L 178.73 0 Z M 179.05 -36.29 L 179.05 -26.4 L 184.46 -26.4 Q 186.42 -26.4 187.93 -27.85 Q 189.44 -29.3 189.44 -31.37 L 189.44 -31.37 Q 189.44 -33.39 187.96 -34.84 Q 186.48 -36.29 184.46 -36.29 L 184.46 -36.29 L 179.05 -36.29 Z M 199.58 -0.32 L 199.58 -0.32 L 207.4 -43.6 Q 207.46 -43.85 207.71 -43.85 L 207.71 -43.85 L 216.85 -43.85 Q 217.1 -43.85 217.16 -43.6 L 217.16 -43.6 L 224.66 -0.32 Q 224.72 0 224.41 0 L 224.41 0 L 217.41 0 Q 217.16 0 217.1 -0.32 L 217.1 -0.32 L 216.4 -4.91 L 207.84 -4.91 L 207.14 -0.32 Q 207.08 0 206.83 0 L 206.83 0 L 199.84 0 Q 199.58 0 199.58 -0.32 Z M 211.93 -29.36 L 209.1 -11.65 L 215.14 -11.65 L 212.56 -29.36 L 212.18 -31.69 L 211.93 -29.36 Z M 236 0 L 228.94 0 Q 228.63 0 228.63 -0.32 L 228.63 -0.32 L 228.75 -43.6 Q 228.75 -43.85 229 -43.85 L 229 -43.85 L 249.16 -43.85 Q 249.48 -43.85 249.48 -43.6 L 249.48 -43.6 L 249.48 -36.48 Q 249.48 -36.23 249.23 -36.23 L 249.23 -36.23 L 236.31 -36.23 L 236.31 -26.46 L 249.23 -26.46 Q 249.48 -26.46 249.48 -26.14 L 249.48 -26.14 L 249.54 -19.03 Q 249.54 -18.77 249.23 -18.77 L 249.23 -18.77 L 236.31 -18.77 L 236.31 -0.32 Q 236.31 0 236 0 L 236 0 Z M 268.57 0 L 261.45 0 Q 261.2 0 261.2 -0.32 L 261.2 -0.32 L 261.2 -36.23 L 253.01 -36.23 Q 252.69 -36.23 252.69 -36.54 L 252.69 -36.54 L 252.76 -43.6 Q 252.76 -43.85 253.01 -43.85 L 253.01 -43.85 L 276.95 -43.85 Q 277.26 -43.85 277.26 -43.6 L 277.26 -43.6 L 277.26 -36.54 Q 277.26 -36.23 277.01 -36.23 L 277.01 -36.23 L 268.76 -36.23 L 268.82 -0.32 Q 268.82 0 268.57 0 L 268.57 0 Z M 297.05 0 L 289.93 0 Q 289.67 0 289.67 -0.32 L 289.67 -0.32 L 289.74 -43.6 Q 289.74 -43.85 290.05 -43.85 L 290.05 -43.85 L 297.05 -43.85 Q 297.36 -43.85 297.36 -43.6 L 297.36 -43.6 L 297.3 -26.46 L 306.75 -26.46 L 306.75 -43.6 Q 306.75 -43.85 307 -43.85 L 307 -43.85 L 313.99 -43.85 Q 314.31 -43.85 314.31 -43.6 L 314.31 -43.6 L 314.43 -0.32 Q 314.43 0 314.12 0 L 314.12 0 L 307.06 0 Q 306.75 0 306.75 -0.32 L 306.75 -0.32 L 306.75 -18.84 L 297.3 -18.84 L 297.3 -0.32 Q 297.3 0 297.05 0 L 297.05 0 Z M 331.25 0.63 L 331.25 0.63 Q 327.85 0.63 325.05 -1.1 Q 322.25 -2.83 320.54 -5.7 Q 318.84 -8.57 318.84 -12.03 L 318.84 -12.03 L 318.91 -32 Q 318.91 -35.47 320.58 -38.3 Q 322.25 -41.14 325.08 -42.84 Q 327.92 -44.54 331.25 -44.54 L 331.25 -44.54 Q 334.66 -44.54 337.43 -42.84 Q 340.2 -41.14 341.87 -38.3 Q 343.54 -35.47 343.54 -32 L 343.54 -32 L 343.6 -12.03 Q 343.6 -8.57 341.93 -5.7 Q 340.26 -2.83 337.46 -1.1 Q 334.66 0.63 331.25 0.63 Z M 331.25 -6.99 L 331.25 -6.99 Q 333.14 -6.99 334.56 -8.54 Q 335.98 -10.08 335.98 -12.03 L 335.98 -12.03 L 335.92 -32 Q 335.92 -34.08 334.59 -35.53 Q 333.27 -36.98 331.25 -36.98 L 331.25 -36.98 Q 329.3 -36.98 327.92 -35.56 Q 326.53 -34.15 326.53 -32 L 326.53 -32 L 326.53 -12.03 Q 326.53 -9.95 327.92 -8.47 Q 329.3 -6.99 331.25 -6.99 Z M 355.76 0 L 348.64 0 Q 348.39 0 348.39 -0.32 L 348.39 -0.32 L 348.52 -43.6 Q 348.52 -43.85 348.77 -43.85 L 348.77 -43.85 L 356.45 -43.85 Q 356.71 -43.85 356.89 -43.6 L 356.89 -43.6 L 362.63 -35.28 L 368.36 -43.6 Q 368.55 -43.85 368.8 -43.85 L 368.8 -43.85 L 376.55 -43.85 Q 376.8 -43.85 376.8 -43.6 L 376.8 -43.6 L 376.93 -0.32 Q 376.93 0 376.68 0 L 376.68 0 L 369.56 0 Q 369.31 0 369.31 -0.32 L 369.31 -0.32 L 369.24 -32.45 L 362.63 -22.87 L 356.08 -32.45 L 356.01 -0.32 Q 356.01 0 355.76 0 L 355.76 0 Z M 402.82 0 L 382.47 0 Q 382.22 0 382.22 -0.32 L 382.22 -0.32 L 382.28 -43.6 Q 382.28 -43.85 382.54 -43.85 L 382.54 -43.85 L 402.76 -43.85 Q 403.01 -43.85 403.01 -43.53 L 403.01 -43.53 L 403.01 -36.48 Q 403.01 -36.23 402.76 -36.23 L 402.76 -36.23 L 389.84 -36.23 L 389.84 -26.4 L 402.76 -26.4 Q 403.01 -26.4 403.01 -26.14 L 403.01 -26.14 L 403.07 -19.03 Q 403.07 -18.77 402.82 -18.77 L 402.82 -18.77 L 389.84 -18.77 L 389.84 -7.75 L 402.82 -7.75 Q 403.07 -7.75 403.07 -7.43 L 403.07 -7.43 L 403.07 -0.25 Q 403.07 0 402.82 0 L 402.82 0 Z M 425.38 0 L 418.32 0 Q 418 0 418 -0.32 L 418 -0.32 L 418.13 -43.6 Q 418.13 -43.85 418.38 -43.85 L 418.38 -43.85 L 430.48 -43.85 Q 436.28 -43.85 439.65 -40.32 Q 443.02 -36.79 443.02 -30.74 L 443.02 -30.74 Q 443.02 -26.27 441.25 -23 Q 439.49 -19.72 436.65 -17.96 Q 433.82 -16.19 430.48 -16.19 L 430.48 -16.19 L 425.69 -16.19 L 425.69 -0.32 Q 425.69 0 425.38 0 L 425.38 0 Z M 425.69 -36.29 L 425.69 -23.81 L 430.48 -23.81 Q 432.5 -23.81 433.98 -25.74 Q 435.46 -27.66 435.46 -30.74 L 435.46 -30.74 Q 435.46 -33.2 434.13 -34.78 Q 432.81 -36.35 430.48 -36.35 L 430.48 -36.35 L 425.69 -36.29 Z M 441.5 -0.32 L 441.5 -0.32 L 449.32 -43.6 Q 449.38 -43.85 449.63 -43.85 L 449.63 -43.85 L 458.77 -43.85 Q 459.02 -43.85 459.08 -43.6 L 459.08 -43.6 L 466.58 -0.32 Q 466.64 0 466.33 0 L 466.33 0 L 459.33 0 Q 459.08 0 459.02 -0.32 L 459.02 -0.32 L 458.33 -4.91 L 449.76 -4.91 L 449.06 -0.32 Q 449 0 448.75 0 L 448.75 0 L 441.76 0 Q 441.5 0 441.5 -0.32 Z M 453.85 -29.36 L 451.02 -11.65 L 457.07 -11.65 L 454.48 -29.36 L 454.1 -31.69 L 453.85 -29.36 Z M 477.98 0 L 470.86 0 Q 470.55 0 470.55 -0.32 L 470.55 -0.32 L 470.61 -43.6 Q 470.61 -43.85 470.86 -43.85 L 470.86 -43.85 L 477.92 -43.85 Q 478.17 -43.85 478.17 -43.6 L 478.17 -43.6 L 478.23 -0.32 Q 478.23 0 477.98 0 L 477.98 0 Z M 490.64 0 L 484.34 0 Q 483.84 0 483.84 -0.44 L 483.84 -0.44 L 483.78 -43.34 Q 483.78 -43.85 484.28 -43.85 L 484.28 -43.85 L 489.95 -43.85 L 500.6 -19.03 L 500.28 -43.34 Q 500.28 -43.85 500.85 -43.85 L 500.85 -43.85 L 507.09 -43.85 Q 507.47 -43.85 507.47 -43.34 L 507.47 -43.34 L 507.53 -0.38 Q 507.53 0 507.21 0 L 507.21 0 L 501.67 0 L 490.77 -23.18 L 491.21 -0.5 Q 491.21 0 490.64 0 L 490.64 0 Z M 526.43 0 L 519.31 0 Q 519.06 0 519.06 -0.32 L 519.06 -0.32 L 519.06 -36.23 L 510.87 -36.23 Q 510.55 -36.23 510.55 -36.54 L 510.55 -36.54 L 510.62 -43.6 Q 510.62 -43.85 510.87 -43.85 L 510.87 -43.85 L 534.81 -43.85 Q 535.12 -43.85 535.12 -43.6 L 535.12 -43.6 L 535.12 -36.54 Q 535.12 -36.23 534.87 -36.23 L 534.87 -36.23 L 526.62 -36.23 L 526.68 -0.32 Q 526.68 0 526.43 0 L 526.43 0 Z M 558.81 0 L 538.46 0 Q 538.21 0 538.21 -0.32 L 538.21 -0.32 L 538.27 -43.6 Q 538.27 -43.85 538.52 -43.85 L 538.52 -43.85 L 558.75 -43.85 Q 559 -43.85 559 -43.53 L 559 -43.53 L 559 -36.48 Q 559 -36.23 558.75 -36.23 L 558.75 -36.23 L 545.83 -36.23 L 545.83 -26.4 L 558.75 -26.4 Q 559 -26.4 559 -26.14 L 559 -26.14 L 559.06 -19.03 Q 559.06 -18.77 558.81 -18.77 L 558.81 -18.77 L 545.83 -18.77 L 545.83 -7.75 L 558.81 -7.75 Q 559.06 -7.75 559.06 -7.43 L 559.06 -7.43 L 559.06 -0.25 Q 559.06 0 558.81 0 L 558.81 0 Z M 572.04 0 L 564.92 0 Q 564.67 0 564.67 -0.32 L 564.67 -0.32 L 564.8 -43.6 Q 564.8 -43.85 565.05 -43.85 L 565.05 -43.85 L 577.77 -43.85 Q 581.18 -43.85 584.04 -42.18 Q 586.91 -40.51 588.61 -37.71 Q 590.31 -34.9 590.31 -31.37 L 590.31 -31.37 Q 590.31 -29.04 589.62 -27.18 Q 588.92 -25.33 587.98 -24.03 Q 587.03 -22.74 586.28 -22.11 L 586.28 -22.11 Q 589.68 -18.33 589.68 -13.23 L 589.68 -13.23 L 589.74 -0.32 Q 589.74 0 589.43 0 L 589.43 0 L 582.31 0 Q 582.06 0 582.06 -0.19 L 582.06 -0.19 L 582.06 -13.23 Q 582.06 -15.5 580.45 -17.17 Q 578.84 -18.84 576.51 -18.84 L 576.51 -18.84 L 572.36 -18.84 L 572.29 -0.32 Q 572.29 0 572.04 0 L 572.04 0 Z M 572.36 -36.29 L 572.36 -26.4 L 577.77 -26.4 Q 579.73 -26.4 581.24 -27.85 Q 582.75 -29.3 582.75 -31.37 L 582.75 -31.37 Q 582.75 -33.39 581.27 -34.84 Q 579.79 -36.29 577.77 -36.29 L 577.77 -36.29 L 572.36 -36.29 Z M 605.56 0.63 L 605.56 0.63 Q 602.15 0.63 599.35 -1.1 Q 596.55 -2.83 594.88 -5.7 Q 593.21 -8.57 593.21 -12.03 L 593.21 -12.03 L 593.21 -14.93 Q 593.21 -15.25 593.52 -15.25 L 593.52 -15.25 L 600.58 -15.25 Q 600.83 -15.25 600.83 -14.93 L 600.83 -14.93 L 600.83 -12.03 Q 600.83 -9.95 602.22 -8.47 Q 603.6 -6.99 605.56 -6.99 L 605.56 -6.99 Q 607.51 -6.99 608.9 -8.51 Q 610.28 -10.02 610.28 -12.03 L 610.28 -12.03 Q 610.28 -14.36 607.26 -16.07 L 607.26 -16.07 Q 606.25 -16.63 604.11 -17.83 Q 601.97 -19.03 600.08 -20.1 L 600.08 -20.1 Q 596.61 -22.11 594.94 -25.17 Q 593.27 -28.22 593.27 -32.07 L 593.27 -32.07 Q 593.27 -35.59 594.97 -38.4 Q 596.67 -41.2 599.48 -42.84 Q 602.28 -44.48 605.56 -44.48 L 605.56 -44.48 Q 608.9 -44.48 611.7 -42.81 Q 614.5 -41.14 616.17 -38.34 Q 617.84 -35.53 617.84 -32.07 L 617.84 -32.07 L 617.84 -26.9 Q 617.84 -26.65 617.59 -26.65 L 617.59 -26.65 L 610.53 -26.65 Q 610.28 -26.65 610.28 -26.9 L 610.28 -26.9 L 610.22 -32.07 Q 610.22 -34.27 608.83 -35.66 Q 607.45 -37.04 605.56 -37.04 L 605.56 -37.04 Q 603.6 -37.04 602.22 -35.56 Q 600.83 -34.08 600.83 -32.07 L 600.83 -32.07 Q 600.83 -29.99 601.71 -28.6 Q 602.6 -27.22 604.93 -25.96 L 604.93 -25.96 Q 605.24 -25.77 606.15 -25.29 Q 607.07 -24.82 608.14 -24.22 Q 609.21 -23.63 610.06 -23.18 Q 610.91 -22.74 611.1 -22.62 L 611.1 -22.62 Q 614.25 -20.85 616.08 -18.3 Q 617.9 -15.75 617.9 -12.03 L 617.9 -12.03 Q 617.9 -8.44 616.23 -5.58 Q 614.57 -2.71 611.76 -1.04 Q 608.96 0.63 605.56 0.63 Z" stroke-linecap="round" />
</g>
</g>
</g>
</svg>